<svg width="40" height="40" viewBox="0 0 40 40" fill="none" xmlns="http://www.w3.org/2000/svg">
<path d="M20 40C31.0457 40 40 31.0457 40 20C40 8.9543 31.0457 0 20 0C8.9543 0 0 8.9543 0 20C0 31.0457 8.9543 40 20 40Z" fill="url(#paint0_linear_24_809)"/>
<path d="M20.2273 17.4363C19.3518 17.4358 18.4951 17.691 17.7627 18.1707C17.0303 18.6504 16.454 19.3336 16.1045 20.1363C15.8495 19.5468 15.4708 19.0189 14.9941 18.5883C14.5174 18.1578 13.9538 17.8346 13.3414 17.6407C12.7291 17.4468 12.0822 17.3866 11.4445 17.4643C10.8069 17.5419 10.1934 17.7556 9.64545 18.0909V14.4045C9.64545 14.12 9.53244 13.8472 9.33126 13.646C9.13008 13.4448 8.85723 13.3318 8.57273 13.3318C8.28822 13.3318 8.01537 13.4448 7.81419 13.646C7.61302 13.8472 7.5 14.12 7.5 14.4045V21.925C7.50103 22.9562 7.85713 23.9557 8.50843 24.7553C9.15972 25.5549 10.0665 26.1058 11.0762 26.3154C12.086 26.525 13.1371 26.3806 14.0528 25.9063C14.9686 25.4321 15.6931 24.657 16.1045 23.7113C16.427 24.453 16.9439 25.0938 17.6007 25.5658C18.2574 26.0378 19.0296 26.3235 19.8354 26.3926C20.6412 26.4618 21.4507 26.3118 22.1782 25.9586C22.9058 25.6054 23.5244 25.0621 23.9684 24.3861C24.4125 23.7102 24.6657 22.9268 24.701 22.1188C24.7364 21.3108 24.5527 20.5083 24.1693 19.7962C23.7859 19.084 23.2172 18.4888 22.5233 18.0733C21.8294 17.6579 21.036 17.4378 20.2273 17.4363ZM11.9886 24.2682C11.5252 24.2682 11.0722 24.1307 10.6868 23.8733C10.3015 23.6158 10.0012 23.2498 9.82382 22.8217C9.64647 22.3935 9.60007 21.9224 9.69048 21.4678C9.78089 21.0133 10.0041 20.5958 10.3318 20.2681C10.6595 19.9404 11.077 19.7172 11.5315 19.6268C11.986 19.5364 12.4572 19.5828 12.8853 19.7602C13.3135 19.9375 13.6794 20.2378 13.9369 20.6232C14.1944 21.0085 14.3318 21.4615 14.3318 21.925C14.3312 22.5462 14.0842 23.1419 13.6449 23.5812C13.2056 24.0205 12.6099 24.2675 11.9886 24.2682ZM20.2182 24.2682C19.7547 24.2682 19.3017 24.1307 18.9164 23.8733C18.531 23.6158 18.2307 23.2498 18.0534 22.8217C17.876 22.3935 17.8296 21.9224 17.92 21.4678C18.0104 21.0133 18.2336 20.5958 18.5613 20.2681C18.889 19.9404 19.3065 19.7172 19.761 19.6268C20.2156 19.5364 20.6867 19.5828 21.1149 19.7602C21.543 19.9375 21.909 20.2378 22.1665 20.6232C22.4239 21.0085 22.5614 21.4615 22.5614 21.925C22.5608 22.5447 22.315 23.1389 21.8776 23.578C21.4403 24.017 20.847 24.2651 20.2273 24.2682H20.2182Z" fill="white"/>
<path d="M29.6045 21.8795L32.234 18.8636C32.3333 18.7587 32.4104 18.6348 32.4607 18.4994C32.511 18.364 32.5334 18.2199 32.5267 18.0756C32.5199 17.9313 32.484 17.7899 32.4213 17.6598C32.3585 17.5297 32.2701 17.4136 32.1614 17.3185C32.0526 17.2234 31.9258 17.1512 31.7885 17.1064C31.6512 17.0615 31.5063 17.0448 31.3624 17.0572C31.2185 17.0697 31.0786 17.1111 30.9511 17.179C30.8236 17.2469 30.7111 17.3398 30.6204 17.4522L28.1817 20.2499L25.7385 17.459C25.6478 17.3466 25.5353 17.2537 25.4078 17.1858C25.2803 17.118 25.1404 17.0765 24.9965 17.0641C24.8526 17.0516 24.7077 17.0683 24.5704 17.1132C24.4331 17.1581 24.3063 17.2302 24.1975 17.3253C24.0888 17.4204 24.0004 17.5365 23.9376 17.6666C23.8749 17.7967 23.839 17.9381 23.8322 18.0824C23.8255 18.2267 23.8479 18.3708 23.8982 18.5063C23.9485 18.6417 24.0256 18.7655 24.1249 18.8704L26.7545 21.8795L24.1249 24.8886C23.9508 25.1043 23.867 25.3789 23.891 25.655C23.9149 25.9312 24.0448 26.1873 24.2534 26.3698C24.4621 26.5522 24.7332 26.6469 25.01 26.6339C25.2869 26.6208 25.548 26.5012 25.7385 26.2999L28.1817 23.509L30.6226 26.2999C30.7134 26.4123 30.8258 26.5053 30.9533 26.5731C31.0809 26.641 31.2208 26.6824 31.3647 26.6949C31.5086 26.7074 31.6535 26.6907 31.7908 26.6458C31.9281 26.6009 32.0549 26.5288 32.1636 26.4337C32.2724 26.3386 32.3608 26.2225 32.4235 26.0924C32.4863 25.9623 32.5222 25.8209 32.5289 25.6766C32.5357 25.5323 32.5133 25.3881 32.463 25.2527C32.4127 25.1173 32.3356 24.9935 32.2363 24.8886L29.6045 21.8795Z" fill="white"/>
<defs>
<linearGradient id="paint0_linear_24_809" x1="20" y1="0" x2="20" y2="40" gradientUnits="userSpaceOnUse">
<stop stop-color="#00AEF0"/>
<stop offset="1" stop-color="#77DAFF"/>
</linearGradient>
</defs>
</svg>
