<svg width="40" height="40" viewBox="0 0 40 40" fill="none" xmlns="http://www.w3.org/2000/svg">
<g clip-path="url(#clip0_24_643)">
<path d="M18.6666 30.6666H21.3333V36H18.6666V30.6666Z" fill="#C5CDDD"/>
<path d="M37.9999 38.6666H23.3333V36H37.9999C38.3535 36 38.6927 36.1404 38.9427 36.3905C39.1928 36.6405 39.3333 36.9797 39.3333 37.3333C39.3333 37.6869 39.1928 38.0261 38.9427 38.2761C38.6927 38.5262 38.3535 38.6666 37.9999 38.6666Z" fill="#C5CDDD"/>
<path d="M1.99996 36H16.6666V38.6667H1.99996C1.64634 38.6667 1.3072 38.5262 1.05715 38.2761C0.807102 38.0261 0.666626 37.687 0.666626 37.3333C0.666626 36.9797 0.807102 36.6406 1.05715 36.3905C1.3072 36.1405 1.64634 36 1.99996 36Z" fill="#C5CDDD"/>
<path d="M2.66663 11.3333V2.66663C2.66663 2.13619 2.87734 1.62749 3.25241 1.25241C3.62749 0.87734 4.13619 0.666626 4.66663 0.666626H12.766C13.5561 0.66672 14.3139 0.980616 14.8726 1.53929L16.4606 3.12729C17.0194 3.68597 17.7771 3.99986 18.5673 3.99996H35.3333C35.8637 3.99996 36.3724 4.21067 36.7475 4.58575C37.1226 4.96082 37.3333 5.46953 37.3333 5.99996V11.3333H2.66663Z" fill="#E58B0A"/>
<path d="M6 9.99996V7.99996C6 7.64634 6.14048 7.3072 6.39052 7.05715C6.64057 6.8071 6.97971 6.66663 7.33333 6.66663H32.6667C33.0203 6.66663 33.3594 6.8071 33.6095 7.05715C33.8595 7.3072 34 7.64634 34 7.99996V9.99996H6Z" fill="white"/>
<path d="M24 35.3334H16C15.6319 35.3334 15.3334 35.6319 15.3334 36V38.6667C15.3334 39.0349 15.6319 39.3334 16 39.3334H24C24.3682 39.3334 24.6667 39.0349 24.6667 38.6667V36C24.6667 35.6319 24.3682 35.3334 24 35.3334Z" fill="#232944"/>
<path d="M35.3333 9.33337H4.66663C3.56206 9.33337 2.66663 10.2288 2.66663 11.3334V29.3334C2.66663 30.4379 3.56206 31.3334 4.66663 31.3334H35.3333C36.4379 31.3334 37.3333 30.4379 37.3333 29.3334V11.3334C37.3333 10.2288 36.4379 9.33337 35.3333 9.33337Z" fill="#FFB90B"/>
<g opacity="0.4">
<path d="M27.4124 15.3334C28.6391 15.3334 29.5324 15.6 30.0924 16.1334C30.6613 16.6578 30.9458 17.3823 30.9458 18.3067C30.9458 18.7245 30.8835 19.1245 30.7591 19.5067C30.6347 19.88 30.4258 20.2178 30.1324 20.52C29.848 20.8134 29.4702 21.0445 28.9991 21.2134C28.528 21.3823 27.9458 21.4667 27.2524 21.4667H26.3858V24.8534H24.3724V15.3334H27.4124ZM27.3058 16.9867H26.3858V19.8134H27.0524C27.4347 19.8134 27.7635 19.7645 28.0391 19.6667C28.3147 19.5689 28.528 19.4134 28.6791 19.2C28.8302 18.9867 28.9058 18.7112 28.9058 18.3734C28.9058 17.9023 28.7769 17.5556 28.5191 17.3334C28.2613 17.1023 27.8569 16.9867 27.3058 16.9867Z" fill="black"/>
<path d="M20.3178 24.8534H18.3044V17.0134H15.7178V15.3334H22.9044V17.0134H20.3178V24.8534Z" fill="black"/>
<path d="M11.32 24.8534H9.33337V15.3334H14.7867V16.9867H11.32V19.44H14.5467V21.0934H11.32V24.8534Z" fill="black"/>
</g>
</g>
<defs>
<clipPath id="clip0_24_643">
<rect width="40" height="40" fill="white"/>
</clipPath>
</defs>
</svg>
