<svg width="40" height="28" viewBox="0 0 40 28" fill="none" xmlns="http://www.w3.org/2000/svg">
<path d="M34.1618 11.7954C34.165 11.6977 34.1667 11.5992 34.1667 11.5C34.1667 5.52665 29.3066 0.666626 23.3333 0.666626C19.3896 0.666626 15.7666 2.8289 13.8672 6.24524C13.0485 5.86519 12.1582 5.66663 11.25 5.66663C8.02409 5.66663 5.3597 8.12431 5.04232 11.3763C2.00521 12.6857 0 15.6829 0 19C0 23.5947 3.73861 27.3333 8.33333 27.3333H32.0833C36.4486 27.3333 40 23.7819 40 19.4166C40 15.8139 37.5863 12.7198 34.1618 11.7954Z" fill="url(#paint0_linear_24_779)"/>
<path d="M34.1618 11.7954C34.165 11.6977 34.1667 11.5992 34.1667 11.5C34.1667 5.52665 29.3066 0.666626 23.3333 0.666626C19.3896 0.666626 15.7666 2.8289 13.8672 6.24524C13.0485 5.86519 12.1582 5.66663 11.25 5.66663C8.02409 5.66663 5.3597 8.12431 5.04232 11.3763C2.00521 12.6857 0 15.6829 0 19C0 23.5947 3.73861 27.3333 8.33333 27.3333H32.0833C36.4486 27.3333 40 23.7819 40 19.4166C40 15.8139 37.5863 12.7198 34.1618 11.7954Z" fill="url(#paint1_radial_24_779)"/>
<path d="M32.0834 27.3333C36.4557 27.3333 40.0001 23.7889 40.0001 19.4167C40.0001 15.0444 36.4557 11.5 32.0834 11.5C27.7112 11.5 24.1667 15.0444 24.1667 19.4167C24.1667 23.7889 27.7112 27.3333 32.0834 27.3333Z" fill="url(#paint2_linear_24_779)"/>
<path d="M8.33333 27.3333C12.9357 27.3333 16.6667 23.6023 16.6667 19C16.6667 14.3976 12.9357 10.6666 8.33333 10.6666C3.73096 10.6666 0 14.3976 0 19C0 23.6023 3.73096 27.3333 8.33333 27.3333Z" fill="url(#paint3_linear_24_779)"/>
<path opacity="0.2" d="M11.25 18.1666C14.7018 18.1666 17.5 15.3684 17.5 11.9166C17.5 8.46485 14.7018 5.66663 11.25 5.66663C7.79822 5.66663 5 8.46485 5 11.9166C5 15.3684 7.79822 18.1666 11.25 18.1666Z" fill="#56C7DA"/>
<path d="M23.3333 22.3333C29.3164 22.3333 34.1667 17.483 34.1667 11.5C34.1667 5.51687 29.3164 0.666626 23.3333 0.666626C17.3502 0.666626 12.5 5.51687 12.5 11.5C12.5 17.483 17.3502 22.3333 23.3333 22.3333Z" fill="url(#paint4_linear_24_779)"/>
<path d="M34.1618 11.7954C34.165 11.6977 34.1667 11.5992 34.1667 11.5C34.1667 5.52665 29.3066 0.666626 23.3333 0.666626C19.3896 0.666626 15.7666 2.8289 13.8672 6.24524C13.0485 5.86519 12.1582 5.66663 11.25 5.66663C8.02409 5.66663 5.3597 8.12431 5.04232 11.3763C2.00521 12.6857 0 15.6829 0 19C0 23.5947 3.73861 27.3333 8.33333 27.3333H32.0833C36.4486 27.3333 40 23.7819 40 19.4166C40 15.8139 37.5863 12.7198 34.1618 11.7954Z" fill="url(#paint5_linear_24_779)"/>
<defs>
<linearGradient id="paint0_linear_24_779" x1="0" y1="14" x2="40" y2="14" gradientUnits="userSpaceOnUse">
<stop stop-color="#95DCF6"/>
<stop offset="1" stop-color="#507EFF"/>
</linearGradient>
<radialGradient id="paint1_radial_24_779" cx="0" cy="0" r="1" gradientUnits="userSpaceOnUse" gradientTransform="translate(20.555 26.9166) scale(16.9967)">
<stop stop-color="#009ADA"/>
<stop offset="1" stop-color="#1E88E5" stop-opacity="0"/>
</radialGradient>
<linearGradient id="paint2_linear_24_779" x1="24.9067" y1="16.07" x2="39.2601" y2="22.7633" gradientUnits="userSpaceOnUse">
<stop stop-color="white" stop-opacity="0.06"/>
<stop offset="1" stop-color="white" stop-opacity="0"/>
</linearGradient>
<linearGradient id="paint3_linear_24_779" x1="14.3233" y1="14.9383" x2="2.24" y2="23.1333" gradientUnits="userSpaceOnUse">
<stop stop-color="white" stop-opacity="0"/>
<stop offset="1" stop-color="white" stop-opacity="0.06"/>
</linearGradient>
<linearGradient id="paint4_linear_24_779" x1="23.3333" y1="0.666626" x2="23.3333" y2="22.3333" gradientUnits="userSpaceOnUse">
<stop stop-color="#00ACCD" stop-opacity="0.2"/>
<stop offset="0.127444" stop-color="#1AB4D2" stop-opacity="0.175"/>
<stop offset="0.400106" stop-color="#5CCADF" stop-opacity="0.12"/>
<stop offset="0.79292" stop-color="#C5ECF4" stop-opacity="0.041"/>
<stop offset="1" stop-color="white" stop-opacity="0"/>
</linearGradient>
<linearGradient id="paint5_linear_24_779" x1="4.095" y1="8.39663" x2="38.48" y2="24.4316" gradientUnits="userSpaceOnUse">
<stop stop-color="white" stop-opacity="0.1"/>
<stop offset="1" stop-color="white" stop-opacity="0"/>
</linearGradient>
</defs>
</svg>
