<svg width="40" height="40" viewBox="0 0 40 40" fill="none" xmlns="http://www.w3.org/2000/svg">
<path d="M33.3332 16.6415C37.3416 17.2498 39.9999 20.7998 39.9999 24.9748C40.0022 26.3861 39.6436 27.7745 38.9582 29.0081L23.2 19.3582L27.8499 17.2415C28.7151 16.8442 29.6562 16.6395 30.6083 16.6415H33.3332Z" fill="#1288DF"/>
<path d="M23.2001 19.3582L38.9584 29.0081C38.2395 30.3122 37.1835 31.3992 35.9008 32.1556C34.6181 32.912 33.1559 33.31 31.6668 33.3081H10.0002C8.39695 33.3102 6.81686 32.9257 5.3938 32.1873C3.97073 31.449 2.74662 30.3784 1.8252 29.0665L23.2001 19.3582Z" fill="#259FEA"/>
<path d="M15.7417 14.7831L23.2 19.3581L1.82512 29.0664C0.633218 27.3832 -0.00467074 25.3705 0.000127798 23.3081C-0.0118441 20.9265 0.817662 18.6173 2.34231 16.7877C3.86696 14.9581 5.98877 13.7258 8.33343 13.3081H10.5168C12.3612 13.3078 14.1697 13.8184 15.7417 14.7831Z" fill="#1480DA"/>
<path d="M33.3334 16.6415H30.6084C29.6564 16.6395 28.7153 16.8442 27.8501 17.2415L23.2001 19.3581L15.7418 14.7831C14.1698 13.8184 12.3613 13.3079 10.5168 13.3082H8.3335C9.50911 11.2594 11.2101 9.5615 13.261 8.38958C15.3118 7.21767 17.6382 6.61422 20.0001 6.64151C26.2501 6.64151 31.8917 10.8415 33.3334 16.6415Z" fill="#056ABC"/>
</svg>
