<svg width="40" height="40" viewBox="0 0 40 40" fill="none" xmlns="http://www.w3.org/2000/svg">
<g clip-path="url(#clip0_24_407)">
<path d="M18.6666 30.6666H21.3333V36H18.6666V30.6666Z" fill="#C5CDDD"/>
<path d="M37.9999 38.6666H23.3333V36H37.9999C38.3535 36 38.6927 36.1404 38.9427 36.3905C39.1928 36.6405 39.3333 36.9797 39.3333 37.3333C39.3333 37.6869 39.1928 38.0261 38.9427 38.2761C38.6927 38.5262 38.3535 38.6666 37.9999 38.6666Z" fill="#C5CDDD"/>
<path d="M1.99996 36H16.6666V38.6667H1.99996C1.64634 38.6667 1.3072 38.5262 1.05715 38.2761C0.807102 38.0261 0.666626 37.687 0.666626 37.3333C0.666626 36.9797 0.807102 36.6406 1.05715 36.3905C1.3072 36.1405 1.64634 36 1.99996 36Z" fill="#C5CDDD"/>
<path d="M2.66663 11.3333V2.66663C2.66663 2.13619 2.87734 1.62749 3.25241 1.25241C3.62749 0.87734 4.13619 0.666626 4.66663 0.666626H12.766C13.5561 0.66672 14.3139 0.980616 14.8726 1.53929L16.4606 3.12729C17.0194 3.68597 17.7771 3.99986 18.5673 3.99996H35.3333C35.8637 3.99996 36.3724 4.21067 36.7475 4.58575C37.1226 4.96082 37.3333 5.46953 37.3333 5.99996V11.3333H2.66663Z" fill="#E58B0A"/>
<path d="M6 9.99996V7.99996C6 7.64634 6.14048 7.3072 6.39052 7.05715C6.64057 6.8071 6.97971 6.66663 7.33333 6.66663H32.6667C33.0203 6.66663 33.3594 6.8071 33.6095 7.05715C33.8595 7.3072 34 7.64634 34 7.99996V9.99996H6Z" fill="white"/>
<path d="M24 35.3334H16C15.6319 35.3334 15.3334 35.6319 15.3334 36V38.6667C15.3334 39.0349 15.6319 39.3334 16 39.3334H24C24.3682 39.3334 24.6667 39.0349 24.6667 38.6667V36C24.6667 35.6319 24.3682 35.3334 24 35.3334Z" fill="#232944"/>
<path d="M35.3333 9.33337H4.66663C3.56206 9.33337 2.66663 10.2288 2.66663 11.3334V29.3334C2.66663 30.4379 3.56206 31.3334 4.66663 31.3334H35.3333C36.4379 31.3334 37.3333 30.4379 37.3333 29.3334V11.3334C37.3333 10.2288 36.4379 9.33337 35.3333 9.33337Z" fill="#FFB90B"/>
<g opacity="0.4">
<path d="M27.325 16.7733C27.9863 16.7733 28.5303 16.8373 28.957 16.9653C29.3837 17.0862 29.7001 17.2889 29.9063 17.5733C30.1125 17.8506 30.2157 18.2275 30.2157 18.704C30.2157 18.9884 30.1659 19.248 30.0663 19.4826C29.9668 19.7173 29.8317 19.9093 29.661 20.0586C29.4974 20.208 29.3125 20.304 29.1063 20.3466V20.4C29.3197 20.4498 29.5223 20.5386 29.7143 20.6666C29.9134 20.7946 30.0734 20.9795 30.1943 21.2213C30.3152 21.4631 30.3757 21.7831 30.3757 22.1813C30.3757 22.6435 30.2654 23.0418 30.045 23.376C29.8317 23.7031 29.5259 23.9555 29.1277 24.1333C28.7294 24.304 28.253 24.3893 27.6983 24.3893H24.9677V16.7733H27.325ZM27.421 19.792C27.805 19.792 28.0717 19.7173 28.221 19.568C28.3703 19.4186 28.445 19.2018 28.445 18.9173C28.445 18.6258 28.3561 18.416 28.1783 18.288C28.0077 18.16 27.7374 18.096 27.3677 18.096H26.6957V19.792H27.421ZM26.6957 21.072V23.056H27.5277C27.9259 23.056 28.2032 22.9635 28.3597 22.7786C28.5161 22.5866 28.5943 22.3342 28.5943 22.0213C28.5943 21.8293 28.5588 21.6622 28.4877 21.52C28.4237 21.3778 28.3099 21.2675 28.1463 21.1893C27.9899 21.1111 27.7694 21.072 27.485 21.072H26.6957Z" fill="black"/>
<path d="M18.4459 24.3893L16.8566 18.416H16.8139C16.821 18.5582 16.8317 18.7715 16.8459 19.056C16.8601 19.3404 16.8743 19.6462 16.8886 19.9733C16.9028 20.2933 16.9099 20.5849 16.9099 20.848V24.3893H15.3739V16.7733H17.6992L19.2886 22.5973H19.3206L20.9526 16.7733H23.2779V24.3893H21.6779V20.784C21.6779 20.5422 21.6815 20.2649 21.6886 19.952C21.6957 19.6391 21.7063 19.344 21.7206 19.0666C21.7348 18.7822 21.7455 18.5689 21.7526 18.4266H21.7099L20.0672 24.3893H18.4459Z" fill="black"/>
<path d="M14.1654 22.2773C14.1654 22.7253 14.0658 23.1164 13.8667 23.4506C13.6676 23.7848 13.3654 24.0444 12.96 24.2293C12.5618 24.4071 12.0569 24.496 11.4454 24.496C11.1609 24.496 10.8978 24.4782 10.656 24.4426C10.4143 24.4071 10.1867 24.3573 9.97337 24.2933C9.76004 24.2222 9.54671 24.1368 9.33337 24.0373V22.5333C9.69604 22.6897 10.0658 22.8355 10.4427 22.9706C10.8267 23.0986 11.1894 23.1626 11.5307 23.1626C11.7512 23.1626 11.9289 23.1271 12.064 23.056C12.1992 22.9848 12.2987 22.8888 12.3627 22.768C12.4267 22.6471 12.4587 22.5084 12.4587 22.352C12.4587 22.16 12.4054 21.9964 12.2987 21.8613C12.1992 21.7262 12.0498 21.6017 11.8507 21.488C11.6516 21.3671 11.4063 21.2462 11.1147 21.1253C10.9014 21.0328 10.6916 20.9262 10.4854 20.8053C10.2792 20.6844 10.0943 20.5386 9.93071 20.368C9.76715 20.1902 9.6356 19.9768 9.53604 19.728C9.4436 19.4791 9.39737 19.1804 9.39737 18.832C9.39737 18.3768 9.50404 17.9893 9.71737 17.6693C9.93071 17.3422 10.2294 17.0933 10.6134 16.9226C10.9974 16.752 11.4454 16.6666 11.9574 16.6666C12.3769 16.6666 12.7645 16.7128 13.12 16.8053C13.4827 16.8977 13.8276 17.0293 14.1547 17.2L13.6107 18.4586C13.2978 18.3164 12.9992 18.2062 12.7147 18.128C12.4374 18.0497 12.1672 18.0106 11.904 18.0106C11.7263 18.0106 11.5769 18.0426 11.456 18.1066C11.3352 18.1706 11.2427 18.2595 11.1787 18.3733C11.1218 18.4871 11.0934 18.6222 11.0934 18.7786C11.0934 18.9564 11.1396 19.1093 11.232 19.2373C11.3316 19.3582 11.4845 19.4791 11.6907 19.6C11.8969 19.7137 12.16 19.8524 12.48 20.016C12.8356 20.1937 13.1378 20.3822 13.3867 20.5813C13.6427 20.7733 13.8347 21.0044 13.9627 21.2746C14.0978 21.5448 14.1654 21.8791 14.1654 22.2773Z" fill="black"/>
</g>
</g>
<defs>
<clipPath id="clip0_24_407">
<rect width="40" height="40" fill="white"/>
</clipPath>
</defs>
</svg>
